/* XPM */
static char *_pb5f_yxg2d[] = {
/* columns rows colors chars-per-pixel */
"70 67 256 2 ",
"   c black",
".  c #010101",
"X  c #020202",
"o  c gray1",
"O  c #040404",
"+  c gray2",
"@  c #060606",
"#  c #070707",
"$  c gray3",
"%  c #090909",
"&  c gray4",
"*  c #0B0B0B",
"=  c #0C0C0C",
"-  c gray5",
";  c #0E0E0E",
":  c gray6",
">  c #101010",
",  c #111111",
"<  c gray7",
"1  c #131313",
"2  c gray8",
"3  c #151515",
"4  c #161616",
"5  c gray9",
"6  c #181818",
"7  c #191919",
"8  c gray10",
"9  c #1B1B1B",
"0  c gray11",
"q  c #1D1D1D",
"w  c #1E1E1E",
"e  c gray12",
"r  c #202020",
"t  c gray13",
"y  c #222222",
"u  c #232323",
"i  c gray14",
"p  c #252525",
"a  c gray15",
"s  c #272727",
"d  c #282828",
"f  c gray16",
"g  c #2A2A2A",
"h  c gray17",
"j  c #2C2C2C",
"k  c #2D2D2D",
"l  c gray18",
"z  c #2F2F2F",
"x  c gray19",
"c  c #313131",
"v  c #323232",
"b  c gray20",
"n  c #343434",
"m  c #353535",
"M  c gray21",
"N  c #373737",
"B  c gray22",
"V  c #393939",
"C  c #3A3A3A",
"Z  c gray23",
"A  c #3C3C3C",
"S  c gray24",
"D  c #3E3E3E",
"F  c #3F3F3F",
"G  c gray25",
"H  c #414141",
"J  c gray26",
"K  c #434343",
"L  c #444444",
"P  c gray27",
"I  c #464646",
"U  c gray28",
"Y  c #484848",
"T  c #494949",
"R  c gray29",
"E  c #4B4B4B",
"W  c #4C4C4C",
"Q  c gray30",
"!  c #4E4E4E",
"~  c gray31",
"^  c #505050",
"/  c #515151",
"(  c gray32",
")  c #535353",
"_  c gray33",
"`  c #555555",
"'  c #565656",
"]  c gray34",
"[  c #585858",
"{  c gray35",
"}  c #5A5A5A",
"|  c #5B5B5B",
" . c gray36",
".. c #5D5D5D",
"X. c gray37",
"o. c #5F5F5F",
"O. c #606060",
"+. c gray38",
"@. c #626262",
"#. c gray39",
"$. c #646464",
"%. c #656565",
"&. c gray40",
"*. c #676767",
"=. c #686868",
"-. c DimGray",
";. c #6A6A6A",
":. c gray42",
">. c #6C6C6C",
",. c #6D6D6D",
"<. c gray43",
"1. c #6F6F6F",
"2. c gray44",
"3. c #717171",
"4. c #727272",
"5. c gray45",
"6. c #747474",
"7. c gray46",
"8. c #767676",
"9. c #777777",
"0. c gray47",
"q. c #797979",
"w. c gray48",
"e. c #7B7B7B",
"r. c #7C7C7C",
"t. c gray49",
"y. c #7E7E7E",
"u. c gray50",
"i. c #808080",
"p. c #818181",
"a. c gray51",
"s. c #838383",
"d. c #848484",
"f. c gray52",
"g. c #868686",
"h. c gray53",
"j. c #888888",
"k. c #898989",
"l. c gray54",
"z. c #8B8B8B",
"x. c gray55",
"c. c #8D8D8D",
"v. c #8E8E8E",
"b. c gray56",
"n. c #909090",
"m. c gray57",
"M. c #929292",
"N. c #939393",
"B. c gray58",
"V. c #959595",
"C. c gray59",
"Z. c #979797",
"A. c #989898",
"S. c gray60",
"D. c #9A9A9A",
"F. c #9B9B9B",
"G. c gray61",
"H. c #9D9D9D",
"J. c gray62",
"K. c #9F9F9F",
"L. c #A0A0A0",
"P. c gray63",
"I. c #A2A2A2",
"U. c gray64",
"Y. c #A4A4A4",
"T. c #A5A5A5",
"R. c gray65",
"E. c #A7A7A7",
"W. c gray66",
"Q. c #A9A9A9",
"!. c #AAAAAA",
"~. c gray67",
"^. c #ACACAC",
"/. c gray68",
"(. c #AEAEAE",
"). c #AFAFAF",
"_. c gray69",
"`. c #B1B1B1",
"'. c #B2B2B2",
"]. c gray70",
"[. c #B4B4B4",
"{. c gray71",
"}. c #B6B6B6",
"|. c #B7B7B7",
" X c gray72",
".X c #B9B9B9",
"XX c gray73",
"oX c #BBBBBB",
"OX c #BCBCBC",
"+X c gray74",
"@X c gray",
"#X c gray75",
"$X c #C0C0C0",
"%X c #C1C1C1",
"&X c gray76",
"*X c #C3C3C3",
"=X c gray77",
"-X c #C5C5C5",
";X c #C6C6C6",
":X c gray78",
">X c #C8C8C8",
",X c gray79",
"<X c #CACACA",
"1X c #CBCBCB",
"2X c gray80",
"3X c #CDCDCD",
"4X c #CECECE",
"5X c gray81",
"6X c #D0D0D0",
"7X c gray82",
"8X c #D2D2D2",
"9X c LightGray",
"0X c gray83",
"qX c #D5D5D5",
"wX c gray84",
"eX c #D7D7D7",
"rX c #D8D8D8",
"tX c gray85",
"yX c #DADADA",
"uX c gray86",
"iX c gainsboro",
"pX c #DDDDDD",
"aX c gray87",
"sX c #DFDFDF",
"dX c gray88",
"fX c #E1E1E1",
"gX c #E2E2E2",
"hX c gray89",
"jX c #E4E4E4",
"kX c gray90",
"lX c #E6E6E6",
"zX c #E7E7E7",
"xX c gray91",
"cX c #E9E9E9",
"vX c #EAEAEA",
"bX c gray92",
"nX c #ECECEC",
"mX c gray93",
"MX c #EEEEEE",
"NX c #EFEFEF",
"BX c gray94",
"VX c #F1F1F1",
"CX c gray95",
"ZX c #F3F3F3",
"AX c #F4F4F4",
"SX c gray96",
"DX c #F6F6F6",
"FX c gray97",
"GX c #F8F8F8",
"HX c #F9F9F9",
"JX c gray98",
"KX c #FBFBFB",
"LX c gray99",
"PX c #FDFDFD",
"IX c #FEFEFE",
"UX c white",
/* pixels */
"$ $ $ $ $ $ ~ $ $ $ $ 6 4 $ $ $ $ $ ~ ~ $ $ $ $ 6 $ $ $ $ $ $ ~ $ $ $ $ $ $ ~ p $ $ $ = 6 $ $ $ $ $ $ ~ $ $ $ $ 6 6 $ $ $ $ $ ~ ~ $ $ $ $ 6 ",
"x : + : : $ : < e 6 u x 8 : u o : $ : : < 6 : u p x : u O : $ : x : u % : $ : > e 6 : a 6 x : 1 : : $ : < e 6 w x 6 : u o : % : : < 7 : u x ",
"$ $ . ~ ~ 6 6 6 $ $ 6 6 $ $ $ . ~ 6 6 6 6 $ $ 6 > $ $ $ o ~ 6 6 $ $ $ 9 ~ 6 6 6 $ $ $ 6 $ $ $ O ~ ~ 6 6 6 $ $ 2 6 $ $ $ . ~ 9 6 6 6 $ $ 6 6 ",
"6 ~ ~ ~ ~ ~ g ~ ~ . 6 $ 6 K ~ ~ ~ ~ $ ~ ~ > 6 6 $ 6 ~ ~ ~ ~ ~ $ 6 ~ ~ ~ ~ ~ $ ~ ~ . 6 6 6 6 ~ ~ ~ ~ ~ = ~ ~ . 6 $ 6 b ~ ~ ~ ~ $ ~ ~ s 6 6 $ ",
"X & & # & = 7 4 4 4 x 6 6 $ & . # * I & 4 4 J 4 6 O & & . $ = I o & & X % = I & 4 4 J 4 6 X & & # & = S 4 4 4 J 6 6 @ & . # * I & 4 4 J 4 6 ",
"~ ~ $ $ $ $ $ ~ ~ ~ ~ . 6 ~ $ $ $ $ $ $ ~ ~ ~ ~ . J ~ $ $ $ $ $ T ~ $ $ $ $ $ $ ~ ~ ~ ~ 6 ~ ~ $ $ $ $ $ ~ ~ ~ ~ . 6 ~ $ $ $ $ $ $ ~ ~ ~ ~ . ",
"$ 6 6 $ $ $ + 6 6 $ O 6 $ 2 6 6 $ $ 6 . 6 ; $ . 6 $ 6 6 6 $ $ 6 $ 6 6 4 $ $ 6 . 6 $ $ . $ $ 6 6 $ $ $ 1 6 6 $ $ 6 $ > 6 6 $ $ 6 . 6 < $ . 6 ",
"~ 6 r $ ~ ~ 6 6 6 ~ ~ . ~ w r 6 $ ~ 6 6 6 v ~ ~ . ~ 6 r 6 i ~ 6 ~ 6 r 4 V ~ 6 6 6 ~ ~ ~ ~ ~ 6 r $ ~ ~ 6 6 6 ~ ~ . ~ h r 6 $ ~ 6 6 6 i ~ ~ . ",
"6 6 $ $ $ $ X $ $ $ - 6 6 6 $ $ $ $ $ . $ $ $ 6 6 6 6 $ $ $ $ $ 6 6 $ $ $ $ $ . $ $ $ 6 6 6 6 $ $ $ $ # $ $ $ $ 6 6 6 $ $ $ $ $ . $ $ $ 6 6 ",
"$ $ $ $ $ 6 & 6 $ $ 5 6 6 $ $ $ $ < . 6 6 $ $ ~ 6 & $ $ $ $ 6 . % $ $ $ $ 6 . 6 $ $ $ ~ 6 $ $ $ $ $ 6 . 6 $ $ $ 6 6 $ $ $ $ ; . 6 6 $ $ ~ 6 ",
"6 ~ $ ~ ~ $ O ~ ~ ~ 6 6 6 K $ $ ~ 3 . $ ~ ~ 6 6 6 6 ~ $ $ ~ $ . 6 ~ $ * ~ $ . $ ~ ~ 6 6 6 6 ~ $ ~ ~ $ . ~ ~ ~ 6 6 6 b $ $ ~ p . $ ~ ~ 6 6 6 ",
"6 6 6 6 6 6 ~ 6 6 6 ~ . . 6 6 $ 6 6 ~ ~ 6 6 ~ ~ . , 6 6 $ 6 6 ~ 3 6 6 % 6 6 ~ ~ 6 6 ~ ~ . 6 6 6 6 6 6 ~ 6 6 6 ~ . . 6 6 $ 6 6 ~ ~ 6 6 ~ ~ . ",
"$ $ $ $ $ $ ~ $ $ $ $ 6 6 $ $ $ $ $ ~ ~ $ $ $ $ 6 & $ $ $ $ $ ~ % $ $ $ $ $ ~ ~ $ $ $ $ 6 $ $ $ $ $ $ ~ $ $ $ $ 6 6 $ $ $ $ $ ~ ~ $ $ $ $ 6 ",
"6 6 $ $ $ $ 6 ~ ~ 6 $ 6 6 6 $ $ $ $ 6 6 ~ j $ $ 6 6 6 $ $ $ $ 6 6 6 $ $ $ $ 6 6 ~ 6 $ $ 6 6 6 $ $ $ $ 6 ~ ~ 6 $ 6 6 6 $ $ $ $ 6 6 ~ Z $ $ 6 ",
"$ $ $ ~ ~ 6 6 6 $ $ - 6 $ $ $ . ~ p 6 6 6 $ $ 6 6 $ $ $ . ~ 6 6 $ $ $ X ~ 6 6 6 $ $ $ 6 $ $ $ $ ~ ~ 6 6 6 $ $ $ 6 $ $ $ . ~ b 6 6 6 $ $ 6 6 ",
"$ $ $ 6 ~ ~ . 6 $ $ $ 1 6 $ $ $ 6 ~ X ~ 6 $ $ $ 6 6 $ $ $ 6 ~ . > $ $ $ i ~ . ~ = $ $ $ 6 $ $ $ 2 ~ ~ . l $ $ $ * 6 $ $ $ 6 ~ * ~ 6 $ $ $ 6 ",
"o 3 3 3 3 3 x p p = C 1 6 $ 3 $ 3 3 k 3 p u C 6 < 6 3 3 $ 3 3 x - 3 3 $ 3 3 x 3 p = C 6 6 o 3 3 < 3 3 x q p = C 5 6 O 3 $ 3 3 p 3 p p C 6 < ",
"~ 6 6 . 6 ~ 6 $ $ $ $ 1 6 B 6 6 . r 0 6 $ $ $ $ 6 6 6 6 6 . ~ 6 h 6 6 6 o ~ 6 6 $ $ $ $ 6 ~ 6 6 X 6 ~ 6 : $ $ $ * 6 T 6 6 . 6 d 6 $ $ $ $ 6 ",
"~ ~ $ $ $ $ $ ~ ~ ~ ~ @ 6 ~ $ $ $ $ $ $ ~ ~ ~ ~ . 6 ~ $ $ $ $ $ h ~ $ $ $ $ $ $ ~ ~ ~ ~ 6 ~ ~ $ $ $ $ $ y ~ ~ ~ k 6 ~ , $ $ $ $ $ ~ ~ ~ ~ . ",
"$ 6 6 $ $ $ 6 6 6 $ $ ; $ = 6 6 $ $ 4 . 6 5 $ . 6 $ 6 6 6 $ $ 6 $ 6 6 6 $ $ 6 . 6 $ $ . $ $ 6 6 * $ $ 6 # 6 $ $ X $ % 6 6 $ $ , . 6 6 $ . 6 ",
"j 6 , $ q q ; ; ; q q ; j p , ; $ q > @ ; : q j $ j 6 , ; $ q ; j 6 , ; - q ; @ ; q q j j j 6 , % q q ; & ; q q r j g < ; $ q 1 @ ; ; q j $ ",
"~ ~ . $ 6 6 6 ~ ~ ~ ~ ~ 6 ~ . ~ $ 6 6 ~ ~ ~ ~ ~ ~ 6 ~ . ~ $ 6 6 h ~ . ~ = 6 6 ~ ~ ~ ~ ~ 6 ~ ~ . > 6 6 6 ~ ~ ~ ~ ~ 6 ~ + ~ $ 6 6 ~ ~ ~ ~ ~ ~ ",
"$ $ $ $ $ 6 . 6 $ $ $ y 6 $ $ $ $ & . 6 6 $ $ ~ 6 6 $ $ $ $ 6 . > $ $ $ $ 6 . 6 = $ $ ~ 6 $ $ $ $ $ 6 . 6 $ $ $ F 6 $ $ $ $ $ O 6 6 $ $ ~ 6 ",
"6 ~ $ ~ ~ $ . ~ ~ ~ 6 6 6 a $ $ ~ C . $ ~ ~ 6 6 6 6 ~ $ $ ~ $ . 6 ~ $ $ ~ $ . $ ~ ~ 6 6 6 6 ~ $ V ~ $ . y ~ ~ 6 6 6 9 , $ ~ ~ X $ ~ ~ 6 6 6 ",
", , , , , , ~ , , , s & + , , $ , , P ~ , , s s + + , , $ , , ~ % , , $ , , ~ ~ , , s s + , , , ; , , ~ d , , s 0 + , , $ , , v ~ , , s s + ",
"~ $ ~ 6 6 $ $ . $ 6 6 ~ 6 k ~ . 6 2 $ $ . % 6 ~ ~ 6 $ ~ . 6 $ $ h $ ~ . 6 $ $ $ O 6 6 ~ 6 ~ $ ~ > 6 $ $ o $ 6 6 ~ 6 I N . 6 6 $ $ . $ 6 ~ ~ ",
"6 6 $ $ $ $ 6 ~ ~ 6 $ 1 6 6 $ $ $ $ 4 6 ~ R $ $ 6 6 6 $ $ $ $ 6 6 6 $ $ $ $ 6 6 ~ 6 $ $ 6 6 6 $ $ $ $ 6 z ~ 6 $ * 6 6 * $ $ $ , 6 ~ ~ $ $ 6 ",
"$ $ $ ~ ~ 6 6 6 $ $ $ 6 $ $ $ . ~ H 6 6 6 $ $ 6 6 $ $ $ . ~ 6 6 $ $ $ . ~ 6 6 6 = $ $ 6 $ $ $ $ c ~ 6 6 6 $ $ $ 6 $ $ $ . ~ ~ 6 6 6 $ $ 6 6 ",
"6 ~ ~ ~ ~ ~ $ ~ ~ . 6 6 6 6 ~ ~ ~ ~ f ~ ~ ~ : 6 $ 6 ~ ~ ~ ~ ~ $ 6 ~ ~ ~ ~ ~ $ ~ ~ X 6 6 % 6 ~ ~ ~ ~ ~ $ ~ ~ . 6 6 6 6 ~ ~ ~ ~ G ~ ~ ~ $ 6 $ ",
". $ $ X $ $ ~ % 6 6 ~ 6 6 . $ . $ $ 8 $ 6 6 F 6 6 6 $ $ . $ $ ~ 6 $ $ . $ $ ~ $ 6 6 ~ 6 6 . $ $ . $ $ ~ $ 6 6 ~ 6 6 . $ . $ $ - $ 6 6 x 6 6 ",
"~ 6 6 = 6 ~ 6 5 $ $ $ $ 6 ~ 6 6 . 6 n 6 $ $ $ $ 6 6 6 6 6 . ~ 6 6 6 6 6 . ~ 6 6 $ $ $ $ 6 ~ 6 6 6 6 ~ 6 6 $ $ $ $ 6 ~ 6 6 . 6 P 6 $ $ $ $ 6 ",
"p b ; = $ $ ; O b p p 7 > p 0 ; $ $ & O b b p 7 @ > b ; ; $ $ ; > b ; ; $ $ ; O b s p 7 @ p b ; ; $ $ ; O b p p 7 > p p ; $ $ % O b b p 7 @ ",
"~ 6 r < ~ ~ 6 6 6 ~ ~ ~ ~ ~ 0 6 $ ~ n 6 6 6 ~ ~ . ~ 6 r 6 $ ~ 6 ~ 6 r 6 $ ~ 6 6 6 I ~ ~ . ~ 6 r 6 ~ ~ 6 6 6 ~ ~ ~ ~ ~ 8 6 $ ~ P 6 6 6 ~ ~ . ",
"6 6 $ $ $ $ $ . $ $ $ 6 6 6 ; $ $ $ $ . $ $ $ 6 6 6 6 $ $ $ $ $ 6 6 $ $ $ $ $ . $ $ $ 6 6 6 6 $ $ $ $ $ . $ $ $ 6 6 6 1 $ $ $ $ . $ $ $ 6 6 ",
"~ ~ . z 6 6 6 ~ ~ ~ ~ ~ 6 ~ , ~ $ 6 6 ~ ~ ~ ~ ~ ~ 6 ~ . ~ $ 6 6 6 ~ . ~ $ 6 6 ~ ~ ~ ~ ~ T ~ ~ . ~ 6 6 6 ~ ~ ~ ~ ~ 6 ~ f ~ $ 6 6 ~ ~ ~ ~ ~ ~ ",
"= 2 $ = 2 < . 1 2 2 = Z 6 = - $ 2 2 $ < i 2 - Z 6 6 2 $ $ 2 < . 6 2 $ $ 2 < . < t 2 = Z 6 = 2 $ $ 2 < . < 2 2 = Z 6 = , $ 2 2 ; < i 2 > Z 6 ",
"6 6 6 = 6 6 ~ Q 6 6 ~ ~ . 6 6 $ 6 6 f ~ 6 6 F ~ . . 6 6 $ 6 6 ~ . 6 6 $ 6 6 ~ ~ 6 6 ~ ~ . 6 6 6 $ 6 6 ~ ~ 6 6 ~ ~ . 6 6 $ 6 6 q ~ 6 6 x ~ . ",
"$ $ $ $ $ $ ~ R $ $ $ $ 6 $ $ $ $ $ 8 ~ $ $ $ $ 6 6 $ $ $ $ $ ~ 6 $ $ $ $ $ ~ ~ $ $ $ $ 6 $ $ $ $ $ $ ~ ~ $ $ $ $ 6 $ $ $ $ $ - ~ $ $ $ $ 6 ",
"~ $ ~ O 6 $ $ $ $ 6 6 ~ 6 ~ u . 6 6 $ $ . $ 6 ~ ~ 6 $ ~ . 6 $ $ 6 $ ~ . 6 $ $ $ . 4 6 ~ T ~ $ ~ . 6 $ $ $ $ 6 6 ~ 6 ~ 1 . 6 6 $ $ . $ 6 ~ ~ ",
"3 3 $ $ ; & 6 7 D 3 $ & 3 3 - @ ; ; : 6 L D & & 6 3 3 $ @ ; & 6 3 3 $ @ ; & 6 6 K 7 $ & 6 3 3 $ @ ; & 6 6 D 3 $ & 3 3 , @ ; ; = 6 L D - & 6 ",
"$ $ $ $ ~ ~ . ~ $ $ $ $ 6 $ $ $ 6 ~ ~ ~ 6 $ $ $ 6 6 $ $ $ 6 ~ . 6 $ $ $ 6 ~ . ~ 6 $ $ $ 6 : $ $ $ ~ ~ . ~ % $ $ $ 6 $ $ $ 6 ~ ~ C 6 $ $ $ 6 ",
"6 ~ ~ ~ ~ ~ $ ~ ~ . 6 6 6 6 ~ ~ ~ ~ ~ ~ ~ ~ o 6 $ 6 u ~ ~ ~ ~ $ 6 B ~ ~ ~ ~ $ ~ ~ w 6 6 $ 6 ~ ~ ~ ~ ~ $ ~ ~ . 6 6 6 6 ~ ~ ~ ~ ~ G ~ ~ . 6 $ ",
"$ = = o = 4 C = < < z < 6 $ = o + = 4 = < < 7 < 6 6 % = o + = C 6 * = o + , C = < < z < 6 > = = o = 4 C = < < z < 6 $ = o + = 4 > < < < 7 6 ",
"! ~ $ $ $ $ $ $ ~ ~ ~ ~ 6 ~ R $ $ $ $ $ ~ ~ ~ ~ . 6 ~ $ $ $ $ $ 6 ~ $ $ $ $ $ $ ~ ~ ~ ~ . k ~ $ $ $ $ $ $ ~ ~ ~ ~ 6 ~ ~ $ $ $ $ $ ~ ~ ~ ~ . ",
"$ 6 6 6 $ $ 6 . 6 $ $ . $ $ 6 6 $ $ $ . 6 6 $ . 6 $ = 6 6 $ $ 6 $ , 6 6 $ $ 6 . 6 , $ . 6 $ 6 6 6 $ $ 6 . 6 $ $ . $ $ 6 6 $ $ $ X 6 6 $ X 6 ",
"~ 6 r 6 ~ ~ 6 6 6 ~ ~ ~ ~ ~ 6 6 $ ~ ~ 6 6 6 ~ ~ . ~ A r 6 $ ~ 6 ~ s r 6 $ ~ 6 6 6 f ~ ~ . ~ 6 r 6 ~ ~ 6 6 6 ~ ~ ~ ~ ~ 6 6 $ ~ ~ 6 6 6 ~ ~ . ",
"w e @ : & & & o : : : e 6 e w : $ & & o : : : w e 6 e @ : $ & & 6 e @ : $ & & o : : : e e 9 e @ : & & & o : : : e 6 e e : $ & & O : : : 7 e ",
"- - # - & 6 . q - - - ~ 6 - = - $ & 6 q q - - Q q 6 - # - $ & . 6 - # - $ > . q q - - ~ q < - # - & 6 . q - - - ~ 6 - - - $ & 6 5 q - - m q ",
"6 ~ $ $ ~ $ . $ ~ ~ 6 6 6 6 R $ ~ ~ $ $ ~ ~ A 6 6 6 u $ $ ~ ~ . 6 B $ $ ~ r . $ ~ ~ 6 6 6 6 ~ $ $ ~ $ . $ ~ ~ 6 6 6 6 ~ $ ~ ~ $ @ ~ ~ Q 6 6 ",
"6 6 6 $ 6 6 ~ ~ 6 6 ~ ~ . 6 6 $ 6 6 6 ~ 6 6 u ~ . . 6 6 $ 6 6 ~ . 6 6 $ 6 6 ~ ~ 6 6 ~ ~ . # 6 6 $ 6 6 ~ ~ 6 6 ~ ~ . 6 6 $ 6 6 6 ~ 6 6 7 ~ . ",
"% $ % $ % $ R R $ % % % 6 % $ $ % % $ R $ $ % % 7 6 % % $ % % R 6 % % $ % $ R R $ $ % % 7 > $ % $ % $ R R $ % % % 6 % $ $ % % $ R $ $ % % 7 ",
"u 1 1 + = $ 1 1 b 6 = 1 6 u 1 + = = $ 1 g b 2 1 u 6 w 1 + = = 1 6 6 1 + = & 1 1 g d = 1 u q 1 1 + = $ 1 1 b 6 = 1 6 u 1 + = = $ 1 g b 6 , u ",
"$ $ $ . ~ 6 6 6 $ $ $ 6 $ $ $ . ~ ~ 6 6 6 $ $ 6 6 $ $ $ . ~ ~ 6 $ $ $ . ~ k 6 6 6 $ $ 6 6 $ $ $ . ~ 6 6 6 % $ $ 6 $ $ $ . ~ ~ 6 6 6 $ $ 1 6 ",
", k k B ~ C ~ B k X , - 2 k k k J ~ O ~ n X , , 6 , k k B ~ ~ * , k k B ~ ~ O V k X , - 6 , k k B ~ ~ ~ B k X , - 4 k k k S ~ O ~ N X , , 5 ",
". $ . $ $ : $ 6 6 6 6 6 + $ $ . $ $ ~ $ 6 6 ~ 6 6 . $ $ $ $ $ v . $ $ $ $ $ ~ 5 6 6 U 6 6 . $ . $ $ $ $ 6 6 6 6 6 * $ $ . $ $ ~ $ 6 6 ~ 6 6 ",
"~ 6 6 . 6 K 6 $ $ $ $ 6 n 6 6 6 @ ~ 6 6 $ $ $ $ 6 ~ 6 6 . 6 ~ 6 ~ 6 6 . 6 ~ 6 % $ $ $ 2 6 ~ 6 6 . 6 ~ 6 $ $ $ $ 6 s 6 6 6 X ~ 6 6 $ $ $ $ 6 ",
"~ p $ $ $ $ $ ~ ~ ~ ~ . n ~ $ $ $ $ $ $ ~ ~ ~ ~ 6 ~ ~ $ $ $ $ ; ~ ~ $ $ $ $ $ Y ~ ~ ~ O 6 ~ ~ $ $ $ $ $ ~ ~ ~ ~ . s ~ $ $ $ $ $ $ ~ ~ ~ ~ 1 ",
"u 7 6 $ u r $ 6 6 u 4 @ u 6 0 6 < u 6 $ 6 u u 4 u u 6 0 $ u u q u 6 0 $ u u 6 5 6 u t % u u 6 6 $ u u $ 6 6 u 4 @ u 6 0 6 = u 6 $ 6 u u 4 w ",
"6 > $ $ $ $ . $ $ $ 6 6 6 6 $ $ $ $ $ . $ $ $ 6 6 6 6 $ $ $ $ ; 6 6 $ $ $ $ $ $ $ $ % 6 6 6 6 $ $ $ $ . $ $ $ 6 6 6 6 $ $ $ $ $ . $ $ $ 6 6 ",
"~ 6 ~ $ 6 6 ~ ~ ~ ~ ~ ~ n ~ . ~ ; 6 6 ~ ~ ~ ~ ~ 6 ~ ~ . $ 6 6 6 ~ ~ . $ 6 6 6 ~ ~ ~ ~ ~ 6 ~ ~ ~ $ 6 6 ~ ~ ~ ~ ~ ~ s ~ . ~ * 6 6 ~ ~ ~ ~ ~ 0 ",
"$ $ $ $ $ , 6 6 $ $ ~ 6 - $ $ $ $ 6 . 6 < $ $ ~ 6 $ $ $ $ $ 6 @ $ $ $ $ $ 6 . 6 $ $ = r 6 $ $ $ $ $ 6 6 6 $ $ ~ 6 , $ $ $ $ 6 . 6 5 $ $ ~ 6 ",
"6 e $ m m - 7 m m m f & , m - $ m - = 7 m m f f & 6 m - m m - * 6 m - m m - = b m m f ; & 6 m $ m m - 7 m m m f & ; m - $ m - = 7 m m f f & ",
"$ $ $ $ $ : ~ $ $ $ $ 6 - $ $ $ $ $ ~ ~ $ $ $ $ 6 $ $ $ $ $ $ v $ $ $ $ $ $ ~ & $ $ $ 2 6 $ $ $ $ $ $ ~ $ $ $ $ 6 , $ $ $ $ $ ~ ~ $ $ $ $ 6 ",
"~ q . 6 6 $ $ . $ 6 ~ ~ n $ ~ . 6 $ $ $ X 6 6 ~ 6 ~ $ ~ 6 6 $ ; ~ $ ~ 6 6 $ $ . $ 6 0 ~ 6 ~ $ . 6 6 $ $ . $ 6 ~ ~ s $ ~ . 6 $ $ $ . 6 6 ~ 0 ",
"6 > $ $ $ & 6 ~ ~ 6 $ 6 6 6 $ $ $ $ 6 6 ~ 6 $ $ 6 6 6 $ $ $ $ 6 6 6 $ $ $ $ 6 R ~ 6 $ 2 6 6 6 $ $ $ $ 6 ~ ~ 6 $ 6 6 6 $ $ $ $ 6 6 ~ 6 $ $ 6 ",
"$ $ o z ~ l l 6 $ $ : 6 ; $ $ o z l # l 3 $ $ : : $ $ $ u ~ l + $ $ $ f ~ l # u $ $ % , : $ $ o z ~ l l 6 $ $ : 6 : $ $ o z l # l 5 $ $ : > ",
"6 ~ ~ ~ ~ ~ ~ ~ ~ . 6 $ 6 ~ ~ ~ ~ ~ $ ~ ~ . 6 6 ; 6 ~ ~ ~ ~ ~ $ 6 ~ ~ ~ ~ ~ $ ~ ~ . 6 < 6 6 ~ ~ ~ ~ ~ ~ ~ ~ . 6 $ 6 ~ ~ ~ ~ ~ $ ~ ~ + 6 6 $ "
};
