/* XPM */
static char *_f635ff35c9014086beec356bcf3a071[] = {
/* columns rows colors chars-per-pixel */
"64 64 146 2 ",
"   c #000000",
".  c #040904",
"X  c #060408",
"o  c #0C0C0C",
"O  c #0E110E",
"+  c #0F1010",
"@  c #121313",
"#  c #161B15",
"$  c #161218",
"%  c #1A1B1A",
"&  c #1E221D",
"*  c #1F2221",
"=  c #242525",
"-  c #252B25",
";  c #2C2C2C",
":  c #2D342C",
">  c #2F382D",
",  c #2F3231",
"<  c #333534",
"1  c #333A34",
"2  c #363A39",
"3  c #3B3C3C",
"4  c #384135",
"5  c #3C403E",
"6  c #3E493C",
"7  c #424443",
"8  c #474A49",
"9  c #4B4C4C",
"0  c #455142",
"q  c #4A5747",
"w  c #4C514E",
"e  c #4D5A49",
"r  c #515C4F",
"t  c #4F5150",
"y  c #535554",
"u  c #555857",
"i  c #565C5A",
"p  c #5B5D5C",
"a  c #546451",
"s  c #586854",
"d  c #5D6D59",
"f  c #5F6361",
"g  c #636564",
"h  c #626966",
"j  c #666B69",
"k  c #6B6D6C",
"l  c #677A63",
"z  c #697A65",
"x  c #6B716E",
"c  c #6E7471",
"v  c #727474",
"b  c #747976",
"n  c #757A78",
"m  c #7A7D7C",
"M  c #6F836B",
"N  c #72866D",
"B  c #74896F",
"V  c #768C72",
"C  c #798E74",
"Z  c #7B827E",
"A  c #7B9376",
"S  c #7F967A",
"D  c #80977B",
"F  c #829A7D",
"G  c #7E8481",
"H  c #7F8984",
"J  c #848685",
"K  c #828B87",
"L  c #868D8A",
"P  c #8A8D8B",
"I  c #869D82",
"U  c #8B9F86",
"Y  c #87918C",
"T  c #8B918E",
"R  c #8E9391",
"E  c #8F9A95",
"W  c #929393",
"Q  c #969C99",
"!  c #9A9D9B",
"~  c #87A082",
"^  c #8EA38A",
"/  c #86A293",
"(  c #8CA699",
")  c #95A792",
"_  c #96AC94",
"`  c #95A19B",
"'  c #9AA29D",
"]  c #90AA9E",
"[  c #9BAD98",
"{  c #A1B19E",
"}  c #9DA5A1",
"|  c #96AEA2",
" . c #9CA9A3",
".. c #9BB2A6",
"X. c #A3A5A4",
"o. c #A1ACA7",
"O. c #A3ACA8",
"+. c #ABABAB",
"@. c #A4B3A3",
"#. c #A8BAA4",
"$. c #A3B3AC",
"%. c #ABB1AE",
"&. c #A3B8AE",
"*. c #AAB7B1",
"=. c #ADBAB4",
"-. c #B3B5B4",
";. c #B1BCB6",
":. c #B5BAB8",
">. c #BABCBB",
",. c #AFC1B8",
"<. c #B5C3B4",
"1. c #B8C4B5",
"2. c #B4C3BB",
"3. c #BAC5BD",
"4. c #BDC8BE",
"5. c #BCC5C1",
"6. c #BCCBC4",
"7. c #C4C5C5",
"8. c #C1CCC5",
"9. c #C4CCC8",
"0. c #CACBCB",
"q. c #C5D5CD",
"w. c #CAD4CE",
"e. c #C7D7D0",
"r. c #C9D7D0",
"t. c #C7D8D0",
"y. c #C9D8D1",
"u. c #CFDFD8",
"i. c #D2D4D3",
"p. c #D2DCD6",
"a. c #D4DDD9",
"s. c #DCDDDD",
"d. c #D4E3DB",
"f. c #DBE1DE",
"g. c #DEE4E1",
"h. c #DFE9E4",
"j. c #E1E6E4",
"k. c #E2E9E5",
"l. c #E6ECE9",
"z. c #EBEDEC",
"x. c #EAF1EE",
"c. c #EEF3F0",
"v. c #F3F6F4",
"b. c #F4F8F6",
"n. c #F7F9F8",
"m. c #FFFFFF",
/* pixels */
"          = 0.                                                    X = = = = O                     @ 7                           ",
"          v   h.k.l.9.T y                                                                     X @           p b w %             ",
"    +   u J ' +                     # 8 b ! 5.s.a.i.:.' b p 9 =                                                           X     ",
"          b 9.l.k.f.f.f.f.j.k.p.1.) F A A A F { 5.s.k.k.g.h.f.f.f.f.h.f.f.g.f.f.g.f.f.g.f.f.f.f.f.h.l.s.X.9           y 3.L     ",
"  8.  8.F A A D f.f.S S D S S S S S S S S D S S S S S S S S S S S S S S S S S D S S S S D S S S S S S S S S S D D f.A F f.u     ",
"X k.  D U A A f.9.S S S D S S S S S S S S S S S S S S S S S S S S S S S S S S S S S S S S S S S S S S S S S S S D D f.D j.3     ",
"  T   r U j.f.S D D S S S S S S S S S S S S S S S S D S S S S S S S S S S S S S S S S S S S D S S D D S S S S S S S A f.l.=     ",
"    j.  j.A D D D D S S S S S S S S S S S S S S S S S S F B 4 o     @ e F S S S S S S S S S F F F F F S S S S S S S S A W @     ",
"+   k.  S S       s F D S S S S S S S S S S S S S D       % T j.y.q.=.5       F F N #           @           O M S S S S 7       ",
"y   f.X S D   w m.m.g     A S S S S S S S S M     o.y.e.y.e.e.y.y.y.y.y.t.i.y.<     h.m.m.m.m.m.m.m.m.m.m.m.m.m.  S S S         ",
", % f.X.S S   m.+.m.m.m.m.z.  & S S S F     z.m.m.m.m.m.x.e.9.h x 6.u.q.y.y.y.e.e.d.    u.x.m.m.m.m.m.>.m.q. .Z   S S S         ",
"@   g.f.S F : m.  m.m.m.m.m.m.z.  S 0   m.m.m.m.m.c.q.y.g   k.m.m.5.q.y.y.e.y.y.e.y.y.6.  ;.y.m.m.m.n.m.y.d.  q.  S S S         ",
"    k.l.S V m.m.  m.m.m.m.m.m.q.f.  m.m.n.q.=.%       = m.m.-     w x c ;     y.y.y.y.i.t.    y.e.m.u.e.T   y.v.  S S S         ",
"    l.g.S : m.m.6.m.m.m.m.x.e.o G m.m.G   g.m.m.y.y.u.9.  ,.y.e.t.x.m.v.q.y.e.e.y.e.y.e.y.y.d.  y.y.e.2.  y.y.m.  S S S o       ",
"    w.f.S   m.m.u.X.m.m.n.u.% =.m.v   m.m.c.          ,.e.y.y.x.m.m.m.s.a.m.k.e.y.y.e.y.y.y.y.q.  y.d.    y.y.m.  S S S c       ",
"    p s.S   m.m.e.  m.m.u.< d.m.m.m.m.  G y.q.m.m.m.m.m.m.m.n.  } m.m.m.m.m.c u.e.y.y.y.d.v.y.y.y.        y.y.m.  S S D :.      ",
"    X f.S   m.m.q.  m.y.  m.m.m.m.3 , y.d.m.m.m.m.m.m.m.m.e.e.m.m.m.m.m.m.m.y.e.y.e.e.e.m.m.m.y.y.n       y.y.m.  S S S f.  @   ",
"  =   f.S   m.n.q.  e.7 m.m.m.m.  e.k.m.w.m.m.m.m.m.m.m.m.p.t.m.m.m.m.m.k.e.y.y.y.y.y.m.m.m.m.m.e.y.R     y.e.m.  S S S l.  3   ",
"  8   f.S   m.n.q.  q.  m.m.m.= y.u.  8 u.! m.c.,.( ..k.m.X.x.m.m.m.m.y.y.y.e.y.y.e.y.m.m.m.m.m.m.t.y.    y.y.m.  S S S k.  p   ",
"  j < g.S   m.m.q.<   m.m., n.m.  y.v.m.y.y.  / / r.m.m.m.o.d.x.q.y.y.d.=.Y P ;.f.y.e.x.m.m.m.m.m.y.y.u.  y.e.m.  S S S f.  b   ",
"  P J f.S   m.m.y.j 7.m.m.m.m.y m.m.m.m.m.y.&.a.n.m.m.m.,.u u.y.*.  p         f x.@ p y.m.m.u.y.x.q.e.y.  2 y.m.  S S S f.  J   ",
"  O.J f.S   m.m.y.@ m.m.m.n.7.m.m.m.m.m.m.t.y.| ( 6.m.v.m.@ q.  -.m.m.        j.      d.m.m.m.i.n.y.y.t.u.  y.m.  S S S f.  R   ",
"  X.j f.S   m.m.u.  m.m.m.m.m.m.d.x   + o.u.d.c.&./ ] p.m.m.  m.m.m.m.m.              m.m.m.m.q.y.y.t.y.r.Q , b.# S S S f.  !   ",
"  t 9 f.S   m.q.H y.m.m.m.m.'   +.m.      w   m.m.m.m.m.m.    m.,   , u.e.y.y.y.y.u.m.m.J       d.y.y.y.e.e.  X.a S S S f.  X.  ",
"  X 1 f.S   m.e.  m.m.m.m.  b m.m.m.      ;   m.m.m.m.m.l.    p p.y.y.e.n.m.m.m.m.m.m.O =.y.t.u.*   e.y.y.y.Z   D S D S f.  X.  ",
"=   @ f.S s m.y.j m.m.+., n.m.0.      6.d.  m.m.m.m.m.m.m.y.e.y.q.m.m.m.m.  6.y.>.    y.y.  g.m.y.y.d.  y.y.t.  S S F V f.  }   ",
"7     f.S F     m.m.m.m.y.H L u.y.y.q.n.m.  m.m.m.m.m.m.m.m.m.m.m.m.m.m.m.m.y.y.e.y.y.y.y.@   m.m.y.y.y.q.y.u.      F S f.  Q   ",
"g     f.S S     m.X.m.m.m.m.m.m.m.m.m.m.7 s.m.m.m.m.m.m.m.m.m.m.m.m.m.m.m.m.m.m.m.m.m.m.m.  d. .m.y.y.q.u.    b   S S S f.  T   ",
"m     f.D D z 0.m.W m.m.m.m.m.@ m.m.m.m.  m.m.m.m.m.m.m.m.m.m.m.m.m.m.m.m.m.m.m.m.m.m.m.%.f y.  m.y.e.y.  d.y.y.  D D D f.  J   ",
"j -   f.D D > m.i.m.m.m.m.7.  m.m.m.m.m.  m.m.m.m.m.m.m.m.y.= m.m.k.u.$.q.m.m.m.m.m.m.m.  y.r.  m.d.e.y.y.e.y.y.  D A D f.  c X ",
"9 j   f.D S   m.m.0.  = 0.m.m.m.m.m.m.  m.m.m.m.m.m.m.m.m.y.y.        3.n.m.m.m.m.m.m.  f.t.m.  -.m.y.y.y.y.y.t.  D D D f.  y * ",
"- G   f.S S   m.X.m.m.m.m.m.m.m.m. .  6.m.m.m.m.m.m.m.u.T y.6.% m.m.m.m.m.m.m.m.m.p   d.  m.m.    m.t.i.      i K I D D f.  , . ",
"@ m   f.S F d m.g m.m.m.m.m.m.m.  J   e.y.q.k.n.m.m.u.  y.  +.m.m.m.m.m.m.m.m.+.  ;.y.x.          m.y.y.y.y.d.E     > D f.  @   ",
"o b     l F #.m.m.g m.m.m.m.m.m.m.m.v   y.y.y.e.y.d.  d.m.m.m.m.m.m.m.m.m.0.  =.y.q.m.m.          m.t.y.t.e.r.y.u.5 D M f.      ",
"  c   h.>     s.m.  m.m.m.m.m.m.m.m.m.l.  6.y.y.y.  m.m.m.m.m.m.m.m.m.7.    e.5.l.m.m.m.        % m.y.e.y.y.e.y.e.$ S A f.      ",
"  k   f.S B m.m.m.  m.m.m.m.m.m.m.m.m.m.m.m.      m.m.m.m.m.m.m.u     q.y.y.o.    = m.m.    8 9.X.m.y.y.e.y.y.y.y.% S A f.+     ",
"  k   f.S D m.m.m.:.7.m.m.m.m.m.m.m.m.m.m.m.m.m.m.8   =       c y y.y.q.m.m.                >.< m.m.y.e.y.y.y.t.u.x S A f.-     ",
"  k   f.S F >.m.m.m.,   k.m.m.m.m.m.m.m.m.m.d.w   j y.y.y.y.y.q.  2 m.m.m.m.                =.  m.m.y.e.e.y.y.y.y.;.S S f.<     ",
"  k % f.D D   +.m.m., r.o.                  G p.X.  m.m.m.m.m.          m.W                 T   m.x.e.y.y.t.y.y.G _ S ^ s.7     ",
"  k < f.      s.m.m.  m.m.n.y.y.  y.y.y.t.l.m.m.    0.m.m.m.m.                              o   m.q.e.y.y.i.t.y.  S S @.f.9     ",
"  c t k.S S   m.m.m.w , m.m.m.s.  i.m.m.m.m.m.        8 m.m.                            7     i.m.e.e.y.y.y.y.y.  S S <.f.t     ",
"  k J f.S S s <.m.m.m.  m.m.m.        m.m.m.              m.                            m.e.  m.m.y.y.y.r.y.t.y.& S S w.f.p o   ",
"  v X.f.S S S # m.m.m.    m.m.          m.l.                                            q.$.  m.q.y.y.e.y.y.y.  S S S a.f.g &   ",
"  v 5.g.S S S   1.m.m.n.    =                                                           y.  z.m.y.y.y.e.y.t.y.@ S S S g.f.g >   ",
"  v i.j.S S S q a m.m.m.                                                                d.  m.d.y.e.y.y.y.y.  S S S S j.f.g 1   ",
"  v h.l.S S S S   k.m.m.J                                                     m.m.m.v.3.  m.m.y.y.y.e.y.y.y.  D S S S h.f.3 >   ",
"  v l.l.A S S S - F m.m.m.                                                    m.m.m.q.d., m.p.y.y.e.y.y.y.  D S S S D f.f.  :   ",
"  b k.a.A S S S S   m.m.m.J                                                   m.m.y.y.  m.a.y.t.y.y.y.e.  0 S S S S D f.f.  -   ",
"  p h.>.A S S S S q z m.m.m.<                                     m.m.      @ m.p.y.3 m.p.e.e.y.e.i.t.  V S S S S S S f.f.  &   ",
"    f.T A S S S S D   < m.m.m.                                  m.m.m.m.    n.q.    m.y.y.y.y.y.y.y.  A S S S S S S S f.f.  &   ",
"    f.f A S D D S S S   j.m.m.m.        j.n.          W         m.m.m.m.v.'     0.n.y.y.y.y.t.y.y.  d S S S S S d X S f.f.  #   ",
"    f.  f.S D A S S S S   c v.m.m.m.  3 m.m.v       m.m.s.    c q.d.i     ` m.f.d.  e.y.y.t.y.h   S S S O O F S   . S f.f.  O   ",
"    f.  A i.D D S S S S D K   y.d.m.m.m.b         W 7 7 , @       % n.m.v.q.y.x y.y.y.y.y.8.  B D S S S : O S S S S A f.f.  .   ",
"    j.  A r.D D S S S S D S ^   u.y.d.m.m.m.m.n.s.X.J J ! 7.z.m.m.m.p.y.6.  y.t.y.y.y.y.    F D S S D D S S S A S S A f.f.      ",
"    k.  f.D f.D S S S S S S D S     d.y.e.e.q.q.r.f.k.x.c.v.b.b.u.w   q.y.y.y.y.y.3.    F D D D S D   e S S         S g.f.      ",
"    5.  A f.F D S S S S S S S S S F 4     p d.y.e.e.t.y.i.t.t.t.e.y.e.q.y.y.Y     C S S D D A D S F     S F         . f.f.      ",
"    G   S 1.A h.S D S S S S S S S S S S F 0         5 G 8.u.u.y.e.y.y.6.    6 D S S S S S S D D S S > S S 0           f.f.      ",
"    3   s.k.f.A 4.S S S S S S S S S S S S S D D S S S I B 6         - ~ S S S S S S S S S S D D S S D S S A         ` j.f.      ",
"        f.f.f.3.4.I S A A A A A A A A A A A A A A A A A A A A A A A A A A A D I I U [ @.=.4.9.a.f.g.g.f.f.f.j.= 3 g.s.f.X.  ,   ",
"        S A D f.f.f.f.h.g.f.f.s.f.f.f.f.f.f.f.f.f.f.f.f.f.f.f.f.f.f.f.f.f.f.f.f.f.f.f.f.f.f.f.f.f.s.f.f.f.f.f.f.g.h.j.G Z       ",
"          , %.g.l.h.l.f.-.G w $                                                                         % 9 k J R '         7   ",
"      Q k.;   J i.0.W t %                                                                                       + , ' 7.a.      ",
"      Z -.3                                                         o w L -.j.l.%.7       + m 9.l.j.f.h.l.l.  % o               ",
"                                                                                                                                "
};
