/* XPM */
static char *Free_Converter_com_f9e24e8efee605137e1eaedac51d4477_38982342[] = {
/* columns rows colors chars-per-pixel */
"64 64 117 2 ",
"   c #0F0E0C",
".  c #140E0E",
"X  c #15110F",
"o  c #19110F",
"O  c #180F10",
"+  c #161111",
"@  c #1A1212",
"#  c #1D1916",
"$  c #1B1718",
"%  c #1E1B19",
"&  c #211D1B",
"*  c #25211E",
"=  c #252321",
"-  c #2A2624",
";  c #2B2926",
":  c #2D2C29",
">  c #322E2C",
",  c #33312F",
"<  c #363332",
"1  c #393534",
"2  c #3B3937",
"3  c #3E3B3A",
"4  c #413E3C",
"5  c #42403F",
"6  c #454342",
"7  c #494544",
"8  c #4A4846",
"9  c #4D4B4A",
"0  c #524D4C",
"q  c #54504F",
"w  c #565452",
"e  c #595654",
"r  c #5C5856",
"t  c #5D5C5A",
"y  c #625D5C",
"u  c #62615E",
"i  c #656362",
"p  c #696563",
"a  c #6A6866",
"s  c #6D6B69",
"d  c #716D6C",
"f  c #72716E",
"g  c #757472",
"h  c #797473",
"j  c #7C7976",
"k  c #7D7B7A",
"l  c #817E7C",
"z  c #83817F",
"x  c #817F80",
"c  c #858381",
"v  c #898584",
"b  c #838884",
"n  c #8B8987",
"m  c #8D8C8A",
"M  c #918E8C",
"N  c #92908E",
"B  c #949492",
"V  c #9A9695",
"C  c #9B9997",
"Z  c #9D9C9A",
"A  c #A19E9C",
"S  c #9EA09E",
"D  c #A2A19F",
"F  c #9FA1A0",
"G  c #A5A4A2",
"H  c #A9A6A4",
"J  c #A6A8A5",
"K  c #AAA9A6",
"L  c #ACACAA",
"P  c #B1AEAD",
"I  c #AFB1AE",
"U  c #B1B0AE",
"Y  c #AFB4B0",
"T  c #B4B4B2",
"R  c #B8B6B5",
"E  c #B6B8B7",
"W  c #BAB8B7",
"Q  c #BDBCBA",
"!  c #C1BEBD",
"~  c #BFC1BE",
"^  c #C1C1BE",
"/  c #C4C4C2",
"(  c #C9C6C4",
")  c #CAC9C7",
"_  c #C7C9C8",
"`  c #CCCCCA",
"'  c #D1CFCD",
"]  c #CFD1CE",
"[  c #D2D1CF",
"{  c #D4D4D2",
"}  c #D9D6D5",
"|  c #D6D9D6",
" . c #DAD9D7",
".. c #D9D7D8",
"X. c #D5D9D8",
"o. c #DCDCDA",
"O. c #E1DEDD",
"+. c #DEE0DD",
"@. c #E3E1DF",
"#. c #E1DFE0",
"$. c #DEE1E0",
"%. c #E4E4E3",
"&. c #E9E6E5",
"*. c #E7E9E6",
"=. c #E9E9E6",
"-. c #E7EAE9",
";. c #ECECEB",
":. c #F1EEEC",
">. c #EEF0EE",
",. c #F2F1EE",
"<. c #EFF2F1",
"1. c #F5F5F3",
"2. c #F9F6F5",
"3. c #F6F8F6",
"4. c #FAF9F7",
"5. c #F7F9F8",
"6. c #FDFCFB",
/* pixels */
"@ @ + + + + + + + @ O @ @ + + + + @ + @ @ + + + + + + O + + + + + @ @ + @ @ @ @ @ o @ @ # @ @ @ # # @ @ @ @ @ & @ @ @ @ @ @ @ & ",
"+ @ + @ + + + + + + + + + @ @ + + + + + @ + + + @ + @ X @ + X O @ @ @ + O @ @ @ o # @ # @ @ @ @ @ @ # @ @ & & @ & @ & @ @ @ @ @ ",
"@ @ @ + @ @ + + + + + + + @ + + X . + + + + . . O . + + + O . + + + @ + @ @ # o + o @ O @ @ # @ @ @ @ @ @ @ @ @ @ @ @ @ @ @ @ @ ",
"+ + @ @ + + + + + + + + + O + + + X   X . + + + + O   + X + O + + + + + @ @ o o + + @ + @ @ o @ @ @ @ @ @ @ @ @ @ @ @ @ @ @ @ @ ",
"@ @ @ + @ + + + O + + + + + + O + +   $ X + + X   + + + + . + X X + + + + + + # @ + + + @ @ $ @ @ @ @ @ @ @ @ @ @ @ @ @ @ @ @ @ ",
"@ @ @ + + @ + + @ + + + + + + +   + +     X + X + + @ = - 2 , , 4 7 2 3 3 , ; & $ @ @ $ + + @ + @ @ @ O @ @ @ @ @ @ @ @ @ @ @ @ ",
"@ @ + @ @ + + + @ + + + + + + + + +   + < f N Z H P T U U Q P U K U K G G J  .~ _ W Z _ N < + $ @ @ @ @ @ @ @ @ @ @ @ @ @ @ & @ ",
"@ + $ + + + + + + + + + + + + + 1 a N B J ( ( Q ! ` #.o.3.>.%.%.=. .,.3.+.Q m J ] E Q ../ J f $ @ @ @ @ O @ @ @ @ @ @ @ @ @ @ @ ",
"@ @ @ @ @ + + + + +   +   + w W J T R E ^ ( ' ] ` ] / ` _ / / {  .[ [ _ Q T G -.S F X.` -.] { V @ @ @ @ O @ @ @ @ @ @ @ @ @ @ @ ",
"+ + @ + + + . . + . + + ; f 4._ =.3.,.,.1.>.,.>.4.1.5.6.5.1.1._ / W / ` [ ;.` L E | S Q <.{ _ { 0 @ @ O & @ O @ @ @ @ @ @ @ @ @ ",
"@ @ + + + . . .   + . 0 -.#.{ 1.1.) T E W ~ ~ ` 5.6.5.5.5.H 5.:.6.5.6.6.:._ T R { J ] E _ -.%.%.R 1 O @ O & O @ @ @ @ @ @ @ @ @ ",
"@ + @ @ + . . . . . 8 ;.%.1.:.-.J ' |  .| | 1.<.3.5.;.;.B #.6.5.1.5.6.6.1.4.6.,.L ~ Y / X.F o.$.O.( & o O o @ @ @ @ @ @ @ @ @ @ ",
"+ @ + @ @ + + . . . P #.-.;.1.J  ./ 4.,.4.6.6.6.E >.6.5.' 6.6.6.4.2.1.2.6.6.2.6.1.^ T ^ E +.$.*.:.:.l O O @ @ @ @ @ @ @ @ @ @ @ ",
"@ + + + @ + +     + [ %.2.5.-...=.1.6.>.6.6.<.5.%.*.6.6.1.6.6.6.1.T g y y u m ^ 1.1.{ ` T | <.X.! O.} & O O O O @ @ @ @ @ @ @ @ ",
"@ @ + @ @ + +   + : #.1.5.5.5.5.6.+.` Q %.3.5.6.5.5.6.6.6.6.5.I 6 3 z e & & # & 3 L 2.1.+.+.-.| ! [ } h o o @ @ @ @ @ @ @ @ @ @ ",
"$ @ + + + + + + + B 1.5.5.5.<._ u B k 9 = 3 K 5.6.6.6.6.6.6.x > G 1.1.G # & # % r 5 n 6.5.>.>.| W %.O.P 4 o o @ @ @ @ @ @ @ @ @ ",
"@ + @ @ + @ + X g <.+.] ^ T =.8 : r z M & & & y J _ 6.6.6.{ - L :.N > - > 2 1 - : e - { o.B @.,.1.%.o.U h o + + @ @ @ @ O @ @ @ ",
"+ + + + + +   k +.Y *.>.,.4.6.:.` ~ P D n y : % , N 3.4.4.<.t , > 5 C | 2.V &.:.^ C D 2.' &.4.4.3.o.` L V j 6 + @ @ O O @ @ @ @ ",
"$ @ + + + . w Q K ~ %.6.6.6.6.6.6.6.6.3.6.6.[ ; ` 3.$.3.6.6.5.Z R 2.4.4.4.z 8 ] 4.6.4.6.,.W p 1 1 1 y K 1.;.Z y X @ @ @ O O @ @ ",
"+ + + @ + . V Y Y | S s r a R 1.6.<.,.o.6.6.&.: :.6.5.6.6.4.6.2.,.:.2.1.6.4.N , r N M a 1 : i ^ %.| G 6 h ,.:.K 0 o + + @ @ # @ ",
"$ + $ + . + n 5.~ z 5 G ^ B = y c 2 o.6.6.6.H < 5.6.6.6.6.6.5.6.4.3.6.4.6.6.6.@.A z z V ^ :.4.2.i 2.6.&.3 Z 6.U &.- @ @ @ @ @ @ ",
"+ + + + @ + Z 1.~ ,.3.4.^ 2.z r j / 6.6.,.l 1 U 6.6.6.6.6.6...Z K ,.6.6.6.6.6.2.6.4.6.6.4.4.^ e = ! 6.6.L 1 1.E ,.l O O @ @ @ @ ",
"+ + + + . + x 1.J 3.2.4.q ` ,.4.5.6.2.o.7 5 <.6.6.6.6.6.6.6.| m 8 s 1.6.+.n ` L D ` 6.:.L e - p 9 4 ! 1.6.2 _ Q :.! O @ @ $ @ @ ",
"+ + @ + O + s ..^ ) 4.^ * G 4.4.5.3.X.e - 3 2.6.6.5.5.o.C c n =.^ 5 6.6.H N ~ &.&.U f , 1 z O.2.c * : 9 @.1 ~ ~ :.Z O @ @ @ @ @ ",
"$ @ + @ + + 6 B / 3.<.9 & 0 2.4.} U @.3.{ 5 f ,.6.4.4.^ C B u { p r :.4.4.' A y ; * * l :.4.2.:.4 l 2.4./ : #.P 4.g + + @ $ @ @ ",
"+ @ + + + + + J { E ;.: 0 * p &.;.1.6.3.,.O.0 e z f >.1.6.6.6.6.K ] H f 2 , y z ! &.> O.4.4.T 0 & L 4.4.F x 5.D &.- @ O @ O @ @ ",
"+ + + @ + + + 5 @.3.@.& * w * : k ( 2.6.4.4.:.V M | 2.,.=.| K j 5 * * f ^ ,.4.4.6.R * ( H q * & e ,.6.&.1._ A { p + + O @ @ @ @ ",
"+ @ + + + + + % *.5.` & - ^ - D t = : 0 s l z z g p q 2 ; , r z L ^ > K 4.4.4.2.W ; & * > l e 1 %.2.5.4.&.o.' d O @ O O $ @ @ @ ",
"+ # + X @ @ + + ` 3.~ % 0 ' 1 2.4.> v P V h > 5 N I ^ 5 l ,.4.6.4.4.u B :.D r : * & & l :.( : K 6.6.6.4.2...< O O O @ @ @ @ @ @ ",
"X X # + o @ + @ ` ;.L % - y * @.o.: 1.6.4.4.y H 6.6.4.y A 2.4.2.2.' e ; ; * * - s A * @.&.4 l 5.3.5.;.1.,.d O O @ @ @ @ @ @ @ @ ",
"o o X @ X + + X { ,.D & # # & 4 e * y j N n > r z z l ; 0 z z r > * & # ; u A &.6.5.1 W 9 y 1.4.5.-.1.5.W @ O O O O @ @ @ @ O @ ",
"# X X @ @ O @ @ %.;.D % # @ # # # @ # % & # & & & & o # # # # * - 2 z > H 4.4.4.6.6.n = r :.5.5.1.1.1.5.7 O O O O @ @ @ @ $ @ @ ",
"+ + $ @ . + @ $ o.*.K & * # $ % @ # # @ # @ & # # # & & & - p v  .4.,.t b 6.6.6.6.T 1 f <.5.5.<.>.6.1.G @ + + O O @ @ @ @ @ @ @ ",
"@ + + + + + + % / %.' & h # 0 & ; - # & & - & % p v D ( u j 6.6.6.6.4.H 1 ;.:.} p , J 3.5.1.5.<.&.5...> X X O O O O @ @ @ @ @ $ ",
"+ @ + + @ @ + % ` ,.&.e p 4 A p r 2.z 4 :.2.P ; 4.6.6.6.N x 6.6.2.1.1.1.5 j z ; p &.6.4.>.5.5.5.=.&.5 @ X @ @ @ @ @ @ @ O @ O @ ",
"+ + @ @ + @ + $ &.&.&.) ; 1 ( o.- ^ O.; ^ 6.1.> ' 6.6.5.G g 6.6.6.2.o.D , * y ^ 6.6.2.' 1.1.#.%.Q 1 + + @ X O @ @ @ $ O $ O @ @ ",
"@ @ + + + + + $ | | >.>.( 7 > y - y ! 4 7 %.2.6 v &.&.#.k 3 G m s 6 : 8 b ] 6.] } Q ! 2.^ P ..L - + o o + @ @ @ @ @ @ @ @ @ @ @ ",
"@ + + @ + + + $ | ~ ;.<.5.5.` Z l p 0 7 4 3 4 4 4 6 7 e p f j M J ` ;.4.2.2.^ T ) 2.Q G { ' r @ + @ o # + + o @ @ @ O @ @ @ @ @ ",
"+ + + + + + + ; %./ %.5.1.-.5.5.6.2.2.4.6.6.6.6.6.6.6.6.6.6.6.6.3.1.2.` U Q :. .R Q :.( e @ O O + o o @ @ o @ @ @ O @ @ @ @ @ @ ",
"# @ + + + +   < X.*.*.>.1.E E 5.6.&.&.4.6.6.6.6.6.6.6.6.6.6.6.=.W I R ` ' E R  .<.Q r $ @ O O O @ o @ @ o @ X @ @ @ @ @ @ @ @ @ ",
"+ + @ @ + X X 2 _ $.F <.5.5.-.E I ~ ) [ ] ` ^ / ~ / ^ / / ( Q ! K T U ^ | ;./ k :   + + @ O @ @ o o @ @ @ O O O @ @ @ O @ @ O @ ",
"@ + + + + +   8 Q $./ b H -.5.5.6.4.1.1.4.1.6.6.,.o./ Q / ~ W ) %.| :.;.E t $   + + + + O @ @ @ @ o o O o @ @ O @ @ @ @ @ @ @ @ ",
"# @ @ + + . . < / / >.%.#.J Q _ { ] { | { ] ` ] o.o.@.o.o. .O.,.2.=.Z 3 @ @ + + . + + @ O O @ O o @ @ @ @ @ @ O @ @ @ O @ @ @ @ ",
"@ @ + @ . . + + m B 5.$.P ` #.%.=.;.=.=.&.+.o.o.%.;.6.6.6.2.2.! d * + # + @ @ + X + + + @ o @ @ @ o O @ @ O @ @ O @ O @ @ @ @ @ ",
"+ @ + + + . + . $ u ;. .%.o.*.>.1.6.6.6.6.6.6.6.6.6.X.J f 5 % + @ @ @ X @ + @ + + O O O O @ o o o o o O @ @ @ @ @ @ @ @ @ @ @ @ ",
"@ @ @ + + + + + + + a / &.;.` -.1.4.1.<.4.1.] G a , @ @ + @ # o + @ + @ @ @ @ @ @ O O O O O o o o & O O @ @ @ @ & @ & @ O @ @ @ ",
"+ + + + + + @ + + + + + 7 h n b M c h t 5 = o o + + @ @ @ @ X @ o + @ O O @ @ O . @ O O O O @ o @ @ @ @ @ @ @ @ @ & @ @ @ @ @ @ ",
"+ @ + @ @ + @ + + = r + X % + + - 1 + , + + @ + < @ @ : , + < > @ + - 9 ; @ O @ O O @ > $ O @ o O o @ @ @ @ & @ @ @ & @ @ @ @ @ ",
"@ + + @ + + 3 f + k ( + f { S % n C ; <.& O + $ %.< & ..M + D P @ - @.2.:.m # o O 7 ..,.P @ - x H 1 O @ p 2 @ 0 y - @ @ @ @ @ @ ",
"@ @ + + + + m >.i E f 6 ] f L f B x > <.% + $ > 2.n h ,.C + [ ;.- 4 ( 4 K >.0 X O n M G ! O P ! ' A @ p ^ ! 1 r W ! 1 @ O @ $ @ ",
"+ @ + @ + + + ~ *.| ; G x % k B T g 1 :.% @ + w 2./ o.=.G - / ` s 0 H & M @.p X @ N G O.e O &.p P l l d * g N O - ( V @ @ @ O @ ",
"+ @ + + +     ; [ J + ~ t # x ( Z s 8 } + + @ f ..,.,.T S e E M L u H # ! } 1 X O M 2.2.( 9 :.H &.1 P l % r ( $ $ A ! O @ O O $ ",
". @ + + + + + % _ 8 X I a % B S k C s T + + + m M ! E m J g *.o.} y N p ! g @ + o v A 4 :.N 2.2.l O ! d & p ! @ V ' 0 & @ & @ @ ",
"@ @ + + + . + 8 L +   k ] i [ 9 ; / ] e + @ + A 4 u q s L S S ;  .f  .T y @ o o o d M L O.q &.( O.p H A - H M - [ - @ @ @ @ O @ ",
"+ + $ + + +   P u + X & n g f $ + e c + + @ @ 4 @ @ + , < p < + 6 5 y & @ @ @ @ O 0 ) H 2 > :.> y y 7 &.' &.q @ A - @ $ & @ O @ ",
"@ + + + + + % V $ X X X $ + X + + + + @ @ + O O + + @ + + + + + + + @ + @ o @ @ @ @ @ @ O O l @ @ O O 7 x r @ & N & @ @ O @ @ @ ",
"+ @ @ + + O +   X X + + @ + + @ + O + O O @ O O @ + @ + @ @ O @ + + + + @ O @ O O O @ @ @ @ @ @ @ @ @ @ @ @ @ @ @ @ @ & @ @ @ @ ",
"+ + @ @ + + + . X o + + + + + + @ O O @ O @ @ @ + @ + @ + @ @ @ + + + + @ @ @ @ @ @ @ @ @ @ @ @ @ @ @ @ @ @ @ @ @ @ @ @ @ @ @ @ ",
"@ O @ @ O O + + + + + + O O O O O @ O O @ @ O @ @ + + O @ @ @ O + + + @ O $ O @ @ O O @ O O @ @ @ @ @ @ @ @ @ @ @ $ @ $ @ @ @ @ ",
"@ @ O O @ + + + + + + + O O O X O @ O O O @ @ O + + + @ @ O O O + + + @ O O O @ @ O O @ @ @ @ O @ @ @ @ & @ @ @ @ $ $ @ @ @ @ @ ",
"@ @ O O + + + + + + . + O + + X O + O O O O O @ + + + + O O O O O O O @ O @ @ @ @ O @ @ @ @ @ @ @ @ @ @ @ @ @ @ @ @ @ & & @ @ @ ",
"@ O @ @ + +   + + . . + O + + + + + O O O @ O + @ + + O O O O O @ @ O O @ O @ @ @ O @ O @ @ @ @ @ @ & @ @ @ @ & @ @ @ @ @ @ @ @ ",
"@ @ + @ + + X + . . + . . + X + O + + + @ + + + + + + + + + O O O O + + + + o + @ @ O O @ @ @ @ @ @ @ @ @ @ @ @ @ @ @ @ @ @ @ @ ",
"$ @ @ + + + + +   . . . . . + X + + + + + + + + + + + + @ @ O O O O + + + . + X O @ O @ @ @ @ @ @ @ @ @ @ @ @ @ @ @ @ @ @ @ @ @ "
};
